[Header]			# Header keywords are followed by a single value
FileType htr		# single word string
DataType HTRS		# Hierarchical translations followed by rotations and Scale
FileVersion 1		# integer
NumSegments 20		# integer
NumFrames 5		# integer
DataFrameRate 60	# integer
EulerRotationOrder ZYX	# one word string
CalibrationUnits mm	# one word string
RotationUnits Degrees	# one word string
GlobalAxisofGravity Y	# character, X or Y or Z
BoneLengthAxis Y
ScaleFactor 1.000000
[SegmentNames&Hierarchy]
#CHILD	PARENT
LowerTorso	GLOBAL
UpperTorso	LowerTorso
LCollarBone	UpperTorso
RCollarBone	UpperTorso
LUpArm	LCollarBone
RUpArm	RCollarBone
LLowArm	LUpArm
RLowArm	RUpArm
LHand	LLowArm
RHand	RLowArm
LPelvis	LowerTorso
RPelvis	LowerTorso
LThigh	LPelvis
RThigh	RPelvis
LLowLeg	LThigh
RLowLeg	RThigh
LFoot	LLowLeg
RFoot	RLowLeg
Neck	UpperTorso
Head	Neck
[BasePosition]
#SegmentName Tx, Ty, Tz, Rx, Ry, Rz, BoneLength
LowerTorso	0.000000	0.000000	0.000000	0.000000	0.000000	0.000000	247.497849
UpperTorso	0.000000	247.497849	0.000000	-3.483188	-0.016176	-0.898562	303.935425
LCollarBone	0.000000	303.935425	0.000000	-2.778975	2.380151	-103.909637	160.814774
RCollarBone	0.000000	303.935425	0.000000	1.923138	-2.431442	97.423370	173.085861
LUpArm	0.000000	160.814774	0.000000	9.905276	-0.146364	3.830753	266.228302
RUpArm	0.000000	173.085861	0.000000	3.559436	0.163580	4.186032	250.544907
LLowArm	0.000000	266.228302	0.000000	0.604391	2.460426	18.478745	239.401855
RLowArm	0.000000	250.544907	0.000000	-4.677841	-1.676118	-16.763147	247.676224
LHand	0.000000	239.401855	0.000000	-2.922581	-1.504997	-10.879651	178.693573
RHand	0.000000	247.676224	0.000000	8.087741	0.221451	14.771751	171.097885
LPelvis	0.000000	0.000000	0.000000	25.628080	-1.004481	-103.107483	127.213554
RPelvis	0.000000	0.000000	0.000000	7.212610	1.026056	95.806335	154.731140
LThigh	0.000000	127.213554	0.000000	-8.629928	-24.934669	-78.343170	392.414856
RThigh	0.000000	154.731140	0.000000	-0.087953	7.045837	82.361420	403.151337
LLowLeg	0.000000	392.414856	0.000000	-11.135172	-0.396179	6.207254	411.539612
RLowLeg	0.000000	403.151337	0.000000	-15.879393	-0.038285	-2.567663	396.965240
LFoot	0.000000	411.539612	0.000000	86.993790	-9.419292	-7.421347	182.020935
RFoot	0.000000	396.965240	0.000000	85.685738	19.489246	8.810133	181.714371
Neck	0.000000	303.935425	0.000000	26.917892	0.010495	-0.245093	141.112030
Head	0.000000	141.112030	0.000000	-34.290924	-1.751020	-3.852423	164.098740
#Beginning of Data. Separated by tabs.
[LowerTorso]
#Fr	Tx	Ty	Tz	Rx	Ry	Rz	SF
1	997.995850	879.059814	-2098.917236	-0.533149	-1.528303	1.366411	1.000000
2	998.175171	879.118896	-2098.793457	-0.508873	-1.494542	1.374035	1.000000
3	998.359619	879.148376	-2098.648193	-0.483726	-1.497861	1.374318	1.000000
4	998.567810	879.134888	-2098.481689	-0.464679	-1.527644	1.373253	1.000000
5	998.807434	879.092346	-2098.314697	-0.461015	-1.552515	1.378758	1.000000
[UpperTorso]
#Fr	Tx	Ty	Tz	Rx	Ry	Rz	SF
1	0.000000	0.000000	0.000000	-0.453200	-0.694243	3.211850	1.000000
2	0.000000	0.000000	0.000000	-0.465920	-0.569885	3.174156	1.000000
3	0.000000	0.000000	0.000000	-0.460357	-0.473215	3.159214	1.000000
4	0.000000	0.000000	0.000000	-0.451128	-0.400107	3.152092	1.000000
5	0.000000	0.000000	0.000000	-0.444363	-0.359438	3.148731	1.000000
[LCollarBone]
#Fr	Tx	Ty	Tz	Rx	Ry	Rz	SF
1	0.000000	0.000000	0.000000	2.222161	0.686428	-1.787677	1.000000
2	0.000000	0.000000	0.000000	2.330745	0.713361	-1.747240	1.000000
3	0.000000	0.000000	0.000000	2.350080	0.718052	-1.738878	1.000000
4	0.000000	0.000000	0.000000	2.340406	0.714465	-1.727654	1.000000
5	0.000000	0.000000	0.000000	2.276439	0.693694	-1.689299	1.000000
[RCollarBone]
#Fr	Tx	Ty	Tz	Rx	Ry	Rz	SF
1	0.000000	0.000000	0.000000	1.863685	-0.251226	-0.390888	1.000000
2	0.000000	0.000000	0.000000	1.567798	-0.212539	-0.280056	1.000000
3	0.000000	0.000000	0.000000	1.318722	-0.179906	-0.237037	1.000000
4	0.000000	0.000000	0.000000	1.105799	-0.152013	-0.217045	1.000000
5	0.000000	0.000000	0.000000	1.051426	-0.144799	-0.211048	1.000000
[LUpArm]
#Fr	Tx	Ty	Tz	Rx	Ry	Rz	SF
1	0.000000	0.000000	0.000000	-3.080472	2.825439	1.271009	1.000000
2	0.000000	0.000000	0.000000	-3.137104	3.140245	1.243517	1.000000
3	0.000000	0.000000	0.000000	-3.124126	3.368088	1.240467	1.000000
4	0.000000	0.000000	0.000000	-3.081740	3.561018	1.244519	1.000000
5	0.000000	0.000000	0.000000	-3.016266	3.743685	1.245785	1.000000
[RUpArm]
#Fr	Tx	Ty	Tz	Rx	Ry	Rz	SF
1	0.000000	0.000000	0.000000	1.465913	-5.015826	-6.406531	1.000000
2	0.000000	0.000000	0.000000	1.659055	-5.173617	-6.454755	1.000000
3	0.000000	0.000000	0.000000	1.827546	-5.273887	-6.464308	1.000000
4	0.000000	0.000000	0.000000	1.878725	-5.338735	-6.441792	1.000000
5	0.000000	0.000000	0.000000	1.764029	-5.370758	-6.396947	1.000000
[LLowArm]
#Fr	Tx	Ty	Tz	Rx	Ry	Rz	SF
1	0.000000	0.000000	0.000000	2.173458	-0.332659	0.039890	1.000000
2	0.000000	0.000000	0.000000	2.058561	-0.315037	0.038097	1.000000
3	0.000000	0.000000	0.000000	1.986104	-0.303926	0.036948	1.000000
4	0.000000	0.000000	0.000000	1.941392	-0.297070	0.036232	1.000000
5	0.000000	0.000000	0.000000	1.897892	-0.290401	0.035531	1.000000
[RLowArm]
#Fr	Tx	Ty	Tz	Rx	Ry	Rz	SF
1	0.000000	0.000000	0.000000	3.820761	0.337341	0.006135	1.000000
2	0.000000	0.000000	0.000000	3.753694	0.331425	0.005833	1.000000
3	0.000000	0.000000	0.000000	3.735360	0.329808	0.005752	1.000000
4	0.000000	0.000000	0.000000	3.731236	0.329444	0.005733	1.000000
5	0.000000	0.000000	0.000000	3.775614	0.333359	0.005931	1.000000
[LHand]
#Fr	Tx	Ty	Tz	Rx	Ry	Rz	SF
1	0.000000	0.000000	0.000000	-1.591532	-1.319289	-1.674703	1.000000
2	0.000000	0.000000	0.000000	-1.494538	-1.666476	-1.657492	1.000000
3	0.000000	0.000000	0.000000	-1.452047	-1.925506	-1.630821	1.000000
4	0.000000	0.000000	0.000000	-1.453075	-2.104973	-1.591964	1.000000
5	0.000000	0.000000	0.000000	-1.456159	-2.271134	-1.546563	1.000000
[RHand]
#Fr	Tx	Ty	Tz	Rx	Ry	Rz	SF
1	0.000000	0.000000	0.000000	2.590868	1.340805	-0.346942	1.000000
2	0.000000	0.000000	0.000000	2.360381	1.384386	-0.411786	1.000000
3	0.000000	0.000000	0.000000	2.302345	1.392817	-0.424369	1.000000
4	0.000000	0.000000	0.000000	2.323794	1.430129	-0.412638	1.000000
5	0.000000	0.000000	0.000000	2.378294	1.500438	-0.399855	1.000000
[LPelvis]
#Fr	Tx	Ty	Tz	Rx	Ry	Rz	SF
1	0.000000	0.000000	0.000000	0.000000	0.000000	0.000000	1.000000
2	0.000000	0.000000	0.000000	0.000000	0.000000	0.000000	1.000000
3	0.000000	0.000000	0.000000	0.000000	0.000000	0.000000	1.000000
4	0.000000	0.000000	0.000000	0.000000	0.000000	0.000000	1.000000
5	0.000000	0.000000	0.000000	0.000000	0.000000	0.000000	1.000000
[RPelvis]
#Fr	Tx	Ty	Tz	Rx	Ry	Rz	SF
1	0.000000	0.000000	0.000000	0.000000	0.000000	0.000000	1.000000
2	0.000000	0.000000	0.000000	0.000000	0.000000	0.000000	1.000000
3	0.000000	0.000000	0.000000	0.000000	0.000000	0.000000	1.000000
4	0.000000	0.000000	0.000000	0.000000	0.000000	0.000000	1.000000
5	0.000000	0.000000	0.000000	0.000000	0.000000	0.000000	1.000000
[LThigh]
#Fr	Tx	Ty	Tz	Rx	Ry	Rz	SF
1	0.000000	0.000000	0.000000	-1.108003	-1.045904	-2.560151	1.000000
2	0.000000	0.000000	0.000000	-1.042569	-1.088389	-2.571928	1.000000
3	0.000000	0.000000	0.000000	-1.000325	-1.184544	-2.573783	1.000000
4	0.000000	0.000000	0.000000	-0.986422	-1.331443	-2.571959	1.000000
5	0.000000	0.000000	0.000000	-0.995192	-1.456816	-2.578491	1.000000
[RThigh]
#Fr	Tx	Ty	Tz	Rx	Ry	Rz	SF
1	0.000000	0.000000	0.000000	-1.778362	-0.461057	4.331193	1.000000
2	0.000000	0.000000	0.000000	-1.772093	-0.474579	4.293004	1.000000
3	0.000000	0.000000	0.000000	-1.751978	-0.490882	4.270804	1.000000
4	0.000000	0.000000	0.000000	-1.725276	-0.475780	4.258776	1.000000
5	0.000000	0.000000	0.000000	-1.710015	-0.423880	4.243536	1.000000
[LLowLeg]
#Fr	Tx	Ty	Tz	Rx	Ry	Rz	SF
1	0.000000	0.000000	0.000000	-0.491950	0.039666	0.010278	1.000000
2	0.000000	0.000000	0.000000	-0.570072	0.045973	0.011879	1.000000
3	0.000000	0.000000	0.000000	-0.611633	0.049329	0.012727	1.000000
4	0.000000	0.000000	0.000000	-0.618589	0.049891	0.012869	1.000000
5	0.000000	0.000000	0.000000	-0.614739	0.049580	0.012790	1.000000
[RLowLeg]
#Fr	Tx	Ty	Tz	Rx	Ry	Rz	SF
1	0.000000	0.000000	0.000000	-1.305558	-0.071888	-0.018422	1.000000
2	0.000000	0.000000	0.000000	-1.299077	-0.071531	-0.018334	1.000000
3	0.000000	0.000000	0.000000	-1.315713	-0.072449	-0.018558	1.000000
4	0.000000	0.000000	0.000000	-1.346017	-0.074123	-0.018966	1.000000
5	0.000000	0.000000	0.000000	-1.369642	-0.075428	-0.019284	1.000000
[LFoot]
#Fr	Tx	Ty	Tz	Rx	Ry	Rz	SF
1	0.000000	0.000000	0.000000	1.278849	-1.028908	-1.634454	1.000000
2	0.000000	0.000000	0.000000	1.315360	-1.087186	-1.740044	1.000000
3	0.000000	0.000000	0.000000	1.348222	-1.145127	-1.846034	1.000000
4	0.000000	0.000000	0.000000	1.373065	-1.210009	-1.967528	1.000000
5	0.000000	0.000000	0.000000	1.385494	-1.274134	-2.090273	1.000000
[RFoot]
#Fr	Tx	Ty	Tz	Rx	Ry	Rz	SF
1	0.000000	0.000000	0.000000	3.468362	0.130327	-2.546744	1.000000
2	0.000000	0.000000	0.000000	3.404149	0.134046	-2.471220	1.000000
3	0.000000	0.000000	0.000000	3.373434	0.150409	-2.394759	1.000000
4	0.000000	0.000000	0.000000	3.375832	0.166283	-2.353008	1.000000
5	0.000000	0.000000	0.000000	3.389986	0.163599	-2.374624	1.000000
[Neck]
#Fr	Tx	Ty	Tz	Rx	Ry	Rz	SF
1	0.000000	0.000000	0.000000	-1.328594	0.306168	-1.730960	1.000000
2	0.000000	0.000000	0.000000	-1.352411	0.273906	-1.665402	1.000000
3	0.000000	0.000000	0.000000	-1.357261	0.289702	-1.656422	1.000000
4	0.000000	0.000000	0.000000	-1.359250	0.364551	-1.665151	1.000000
5	0.000000	0.000000	0.000000	-1.359643	0.439463	-1.677279	1.000000
[Head]
#Fr	Tx	Ty	Tz	Rx	Ry	Rz	SF
1	0.000000	0.000000	0.000000	-2.863053	2.195338	-2.602877	1.000000
2	0.000000	0.000000	0.000000	-2.897042	2.066020	-2.528989	1.000000
3	0.000000	0.000000	0.000000	-2.922910	2.103364	-2.455649	1.000000
4	0.000000	0.000000	0.000000	-2.936548	2.249599	-2.390447	1.000000
5	0.000000	0.000000	0.000000	-2.939156	2.419625	-2.336603	1.000000
[EndOfFile]
